Patient4_TMGait_0pt8_01_right_31_GRF.mot
version=1
nRows=45
nColumns=19
inDegrees=no
endheader
time	F1x	F1y	F1z	M1x	M1y	M1z	F2x	F2y	F2z	M2x	M2y	M2z	EC1x	EC1y	EC1z	EC2x	EC2y	EC2z
34.65	3.2372	718.4856	57.386	-268.6526	-59.0511	773.8365	5.1684	-7.8491	7.4407	-3.3346	-9.0398	-6.1419	-0.0592	0.0182	-0.0073	-0.0462	0.0165	0.9585
34.6615	6.5394	715.8194	57.6675	-267.0358	-58.0226	765.7595	3.2045	-4.0935	5.1022	-1.826	-6.0984	-2.4876	-0.0592	0.0182	-0.0073	-0.0462	0.0165	0.9585
34.673	9.6332	713.7825	57.6817	-265.698	-56.6996	758.0825	1.6043	-0.94081	3.0713	-0.53652	-3.5588	0.50483	-0.0592	0.0182	-0.0073	-0.0462	0.0165	0.9585
34.6845	12.3701	712.6829	57.4287	-264.7745	-55.1357	751.3594	0.41848	1.4574	1.4896	0.46362	-1.5895	2.7415	-0.0592	0.0182	-0.0073	-0.0462	0.0165	0.9585
34.696	14.6868	712.5998	56.9678	-264.283	-53.4262	745.8494	-0.38354	3.1341	0.36225	1.1778	-0.1929	4.2813	-0.0592	0.0182	-0.0073	-0.0462	0.0165	0.9585
34.7075	16.6252	713.4053	56.407	-264.1515	-51.6875	741.5074	-0.87593	4.186	-0.35822	1.6419	0.7014	5.2288	-0.0592	0.0182	-0.0073	-0.0462	0.0165	0.9585
34.719	18.2194	714.9035	55.8431	-264.277	-50.0263	738.1921	-1.1419	4.7415	-0.77634	1.9033	1.226	5.6999	-0.0592	0.0182	-0.0073	-0.0462	0.0165	0.9585
34.7305	19.5856	716.9224	55.3346	-264.5637	-48.485	735.7021	-1.2665	4.9086	-0.97184	2.0022	1.4939	5.7884	-0.0592	0.0182	-0.0073	-0.0462	0.0165	0.9585
34.742	20.818	719.3269	54.935	-264.9283	-47.0984	733.8544	-1.3164	4.7342	-1.0376	1.9579	1.6179	5.5325	-0.0592	0.0182	-0.0073	-0.0462	0.0165	0.9585
34.7535	22.0667	721.9588	54.7049	-265.2895	-45.8885	732.4068	-1.3353	4.2524	-1.0422	1.7801	1.6781	4.9432	-0.0592	0.0182	-0.0073	-0.0462	0.0165	0.9585
34.765	23.4844	724.6072	54.7138	-265.5545	-44.8804	731.0958	-1.3478	3.4089	-1.0306	1.4494	1.7225	3.9273	-0.0592	0.0182	-0.0073	-0.0462	0.0165	0.9585
34.7765	25.2201	727.0372	55.0169	-265.6287	-44.0816	729.6311	-1.3534	2.1462	-1.0337	0.93855	1.7766	2.4016	-0.0592	0.0182	-0.0073	-0.0462	0.0165	0.9585
34.788	27.3861	729.0346	55.6205	-265.4284	-43.4638	727.7713	-1.3366	0.38108	-1.0476	0.21515	1.8241	0.23646	-0.0592	0.0182	-0.0073	-0.0462	0.0165	0.9585
34.7995	30.071	730.4781	56.5098	-264.9032	-42.9812	725.3732	-1.2613	-1.9371	-1.0641	-0.73745	1.8342	-2.6449	-0.0592	0.0182	-0.0073	-0.0462	0.0165	0.9585
34.811	33.3143	731.3503	57.6795	-264.0498	-42.6056	722.4029	-1.0474	-4.7521	-1.0443	-1.8907	1.7297	-6.1755	-0.0592	0.0182	-0.0073	-0.0462	0.0165	0.9585
34.8225	37.1207	731.7848	59.1392	-262.9222	-42.3274	718.9796	-0.63185	-7.8112	-0.95349	-3.1357	1.4304	-10.0296	-0.0592	0.0182	-0.0073	-0.0462	0.0165	0.9585
34.834	41.4476	731.9975	60.9046	-261.6054	-42.1564	715.3023	0.086383	-10.5434	-0.71876	-4.2338	0.81006	-13.4906	-0.0592	0.0182	-0.0073	-0.0462	0.0165	0.9585
34.8455	46.1694	732.1865	62.971	-260.1826	-42.1105	711.5748	1.1782	-11.9605	-0.26144	-4.7792	-0.25393	-15.313	-0.0592	0.0182	-0.0073	-0.0462	0.0165	0.9585
34.857	51.1207	732.4647	65.306	-258.7144	-42.2011	707.912	2.6878	-10.552	0.52264	-4.1565	-1.8944	-13.6077	-0.0592	0.0182	-0.0073	-0.0462	0.0165	0.9585
34.8685	56.0718	732.7746	67.8108	-257.2132	-42.4042	704.2844	4.5679	-4.2188	1.7151	-1.5209	-4.1864	-5.718	-0.0592	0.0182	-0.0073	-0.0462	0.0165	0.9585
34.88	60.8376	732.84	70.3192	-255.6264	-42.6325	700.4459	6.6428	9.6243	3.3691	4.1646	-7.1066	11.6418	-0.0592	0.0182	-0.0073	-0.0462	0.0165	0.9585
34.8915	65.2837	732.0864	72.5813	-253.8112	-42.7112	695.8896	8.514	33.8228	5.4589	14.0325	-10.4359	42.1055	-0.0592	0.0182	-0.0073	-0.0462	0.0165	0.9585
34.903	69.3907	729.5103	74.2915	-251.4854	-42.3834	689.6869	9.5303	70.9261	7.8127	29.0883	-13.6572	88.9533	-0.0592	0.0182	-0.0073	-0.0462	0.0165	0.9585
34.9145	73.1381	723.6568	75.1114	-248.2069	-41.3688	680.5403	8.6713	122.305	10.0378	49.8488	-15.8275	153.9914	-0.0592	0.0182	-0.0073	-0.0462	0.0165	0.9585
34.926	76.4527	712.5712	74.7173	-243.3565	-39.4272	666.6943	4.4539	186.9415	11.4731	75.8565	-15.5091	235.983	-0.0592	0.0182	-0.0073	-0.0462	0.0165	0.9585
34.9375	79.0576	693.992	72.8443	-236.1929	-36.4432	646.1663	-4.5797	260.4237	11.2914	105.2752	-11.0835	329.4107	-0.0592	0.0182	-0.0073	-0.0462	0.0165	0.9585
34.949	80.5514	665.7234	69.3338	-225.9807	-32.449	617.0431	-18.0152	334.8827	8.3505	134.8752	-1.3663	424.2723	-0.0592	0.0182	-0.0073	-0.0462	0.0165	0.9585
34.9605	80.4114	626.2565	64.2046	-212.1998	-27.6736	578.0584	-33.2643	401.2825	1.9406	161.0399	13.3105	508.8406	-0.0592	0.0182	-0.0073	-0.0462	0.0165	0.9585
34.972	78.1768	575.3283	57.6942	-194.7301	-22.5161	529.0514	-47.7205	454.5577	-7.0725	181.7746	30.7646	576.2843	-0.0592	0.0182	-0.0073	-0.0462	0.0165	0.9585
34.9835	73.5343	514.2182	50.2463	-173.9499	-17.4817	471.2804	-59.908	495.0927	-17.3957	197.2883	48.7434	626.8079	-0.0592	0.0182	-0.0073	-0.0462	0.0165	0.9585
34.995	66.4723	445.6245	42.4439	-150.7092	-13.075	407.2231	-69.3657	526.9877	-27.6148	209.2962	65.3473	665.5217	-0.0592	0.0182	-0.0073	-0.0462	0.0165	0.9585
35.0065	57.2257	373.2789	34.7742	-126.2193	-9.6173	340.302	-76.0226	555.1343	-36.4845	219.8417	79.0493	698.6612	-0.0592	0.0182	-0.0073	-0.0462	0.0165	0.9585
35.018	46.3913	301.3949	27.6395	-101.8797	-7.2413	274.2832	-80.0876	583.0408	-43.1589	230.3911	88.9453	730.7562	-0.0592	0.0182	-0.0073	-0.0462	0.0165	0.9585
35.0295	34.8343	234.0563	21.2847	-79.0663	-5.8386	212.7943	-81.9335	612.0462	-47.5024	241.4986	95.0414	763.5961	-0.0592	0.0182	-0.0073	-0.0462	0.0165	0.9585
35.041	23.6807	174.4817	15.9081	-58.876	-5.1727	158.5963	-82.1024	641.8637	-49.9425	253.0102	98.0846	796.9897	-0.0592	0.0182	-0.0073	-0.0462	0.0165	0.9585
35.0525	13.8667	124.5015	11.572	-41.9385	-4.9456	113.2324	-81.1049	671.2416	-51.2554	264.3584	99.2228	829.5617	-0.0592	0.0182	-0.0073	-0.0462	0.0165	0.9585
35.064	6.0065	84.5013	8.2077	-28.3944	-4.87	76.9476	-79.4251	698.6262	-52.2421	274.8508	99.6099	859.5602	-0.0592	0.0182	-0.0073	-0.0462	0.0165	0.9585
35.0755	0.25875	53.8729	5.6435	-18.0401	-4.7254	49.1912	-77.4127	722.5942	-53.5042	283.8726	100.1079	885.3348	-0.0592	0.0182	-0.0073	-0.0462	0.0165	0.9585
35.087	-3.4114	31.414	3.6918	-10.4736	-4.359	28.8549	-75.3583	742.1304	-55.2785	291.0097	101.1144	905.7136	-0.0592	0.0182	-0.0073	-0.0462	0.0165	0.9585
35.0985	-5.2115	15.7657	2.2024	-5.2275	-3.7154	14.7324	-73.3939	756.7789	-57.4385	296.1048	102.5358	920.14	-0.0592	0.0182	-0.0073	-0.0462	0.0165	0.9585
35.11	-5.4257	5.5428	1.082	-1.8252	-2.8287	5.5318	-71.5698	766.641	-59.5992	299.2393	103.9483	928.7241	-0.0592	0.0182	-0.0073	-0.0462	0.0165	0.9585
35.1215	-4.6654	-0.41743	0.29154	0.14065	-1.8811	0.19897	-69.8557	772.1475	-61.4095	300.6237	104.9304	931.9702	-0.0592	0.0182	-0.0073	-0.0462	0.0165	0.9585
35.133	-3.4758	-3.2561	-0.19527	1.0606	-1.0443	-2.3062	-68.229	773.8474	-62.6692	300.4986	105.2315	930.5299	-0.0592	0.0182	-0.0073	-0.0462	0.0165	0.9585
35.1445	-2.2389	-4.0157	-0.44714	1.2888	-0.39251	-2.9189	-66.6364	772.2582	-63.3748	299.0797	104.8146	925.0132	-0.0592	0.0182	-0.0073	-0.0462	0.0165	0.9585
35.156	-1.1391	-3.5656	-0.53936	1.1176	0.07206	-2.4487	-65.0312	768.0231	-63.5835	296.6198	103.7296	916.184	-0.0592	0.0182	-0.0073	-0.0462	0.0165	0.9585
